{
  "accessors": [
    {
      "bufferView": 2,
      "componentType": 5126,
      "count": 9071,
      "max": [
        5.073959827423096,
        6.2138800621032715,
        6.851719856262207
      ],
      "min": [
        -3.966330051422119,
        -5.732749938964844,
        -7.895650863647461
      ],
      "type": "VEC3"
    },
    {
      "bufferView": 2,
      "byteOffset": 108852,
      "componentType": 5126,
      "count": 9071,
      "max": [
        0.9999796152114868,
        0.9998354315757751,
        0.998089611530304
      ],
      "min": [
        -0.9999234676361084,
        -0.9998706579208374,
        -0.9999457597732544
      ],
      "type": "VEC3"
    },
    {
      "bufferView": 3,
      "componentType": 5126,
      "count": 9071,
      "max": [
        0.999984085559845,
        0.9998629689216614,
        0.9995547533035278,
        1.0
      ],
      "min": [
        -0.9999836683273315,
        -0.9994308352470398,
        -0.9997977614402771,
        -1.0
      ],
      "type": "VEC4"
    },
    {
      "bufferView": 1,
      "componentType": 5126,
      "count": 9071,
      "max": [
        0.9997090101242065,
        0.9995499849319458
      ],
      "min": [
        0.013999000191688538,
        0.0005600000149570405
      ],
      "type": "VEC2"
    },
    {
      "bufferView": 0,
      "componentType": 5125,
      "count": 36987,
      "type": "SCALAR"
    }
  ],
  "asset": {
    "extras": {
      "author": "Thomas Flynn (https://sketchfab.com/nebulousflynn)",
      "license": "CC-BY-4.0 (http://creativecommons.org/licenses/by/4.0/)",
      "source": "https://sketchfab.com/3d-models/head-of-buddha-optimised-re-upload-f40b36eb3b0a468a8b7baba475d5d259",
      "title": "Head Of Buddha - Optimised Re-Upload"
    },
    "generator": "Sketchfab-12.65.0",
    "version": "2.0"
  },
  "bufferViews": [
    {
      "buffer": 0,
      "byteLength": 147948,
      "name": "floatBufferViews",
      "target": 34963
    },
    {
      "buffer": 0,
      "byteLength": 72568,
      "byteOffset": 147948,
      "byteStride": 8,
      "name": "floatBufferViews",
      "target": 34962
    },
    {
      "buffer": 0,
      "byteLength": 217704,
      "byteOffset": 220516,
      "byteStride": 12,
      "name": "floatBufferViews",
      "target": 34962
    },
    {
      "buffer": 0,
      "byteLength": 145136,
      "byteOffset": 438220,
      "byteStride": 16,
      "name": "floatBufferViews",
      "target": 34962
    }
  ],
  "buffers": [
    {
      "byteLength": 583356,
      "uri": "scene.bin"
    }
  ],
  "images": [
    {
      "uri": "textures/Default_OBJ_baseColor.jpeg"
    },
    {
      "uri": "textures/Default_OBJ_metallicRoughness.png"
    },
    {
      "uri": "textures/Default_OBJ_normal.jpeg"
    }
  ],
  "materials": [
    {
      "doubleSided": true,
      "name": "Default_OBJ",
      "normalTexture": {
        "index": 2
      },
      "occlusionTexture": {
        "index": 1
      },
      "pbrMetallicRoughness": {
        "baseColorTexture": {
          "index": 0
        },
        "metallicFactor": 0.0,
        "metallicRoughnessTexture": {
          "index": 1
        },
        "roughnessFactor": 0.8063508326896291
      }
    }
  ],
  "meshes": [
    {
      "name": "Object_0",
      "primitives": [
        {
          "attributes": {
            "NORMAL": 1,
            "POSITION": 0,
            "TANGENT": 2,
            "TEXCOORD_0": 3
          },
          "indices": 4,
          "material": 0,
          "mode": 4
        }
      ]
    }
  ],
  "nodes": [
    {
      "children": [
        1
      ],
      "matrix": [
        0.03333333507180214,
        0.0,
        0.0,
        0.0,
        0.0,
        7.401487216851996e-18,
        -0.03333333507180214,
        0.0,
        0.0,
        0.03333333507180214,
        7.401487216851996e-18,
        0.0,
        0.0,
        0.0,
        0.0,
        1.0
      ],
      "name": "Sketchfab_model"
    },
    {
      "children": [
        2
      ],
      "name": "Head of Buddha - 5K TRIS.obj.cleaner.materialmerger.gles"
    },
    {
      "mesh": 0,
      "name": "Object_2"
    }
  ],
  "samplers": [
    {
      "magFilter": 9729,
      "minFilter": 9987,
      "wrapS": 10497,
      "wrapT": 10497
    }
  ],
  "scene": 0,
  "scenes": [
    {
      "name": "Sketchfab_Scene",
      "nodes": [
        0
      ]
    }
  ],
  "textures": [
    {
      "sampler": 0,
      "source": 0
    },
    {
      "sampler": 0,
      "source": 1
    },
    {
      "sampler": 0,
      "source": 2
    }
  ]
}
